<mxfile host="65bd71144e">
    <diagram id="CjGkjSfht6_kO8viFYxy" name="Page-1">
        <mxGraphModel dx="1670" dy="938" grid="1" gridSize="10" guides="1" tooltips="1" connect="1" arrows="1" fold="1" page="1" pageScale="1" pageWidth="850" pageHeight="1100" math="0" shadow="0">
            <root>
                <mxCell id="0"/>
                <mxCell id="1" parent="0"/>
                <mxCell id="2" value="" style="sketch=0;pointerEvents=1;shadow=0;dashed=0;html=1;strokeColor=none;fillColor=#005F4B;labelPosition=center;verticalLabelPosition=bottom;verticalAlign=top;align=center;outlineConnect=0;shape=mxgraph.veeam2.laptop;" vertex="1" parent="1">
                    <mxGeometry x="105" y="138.75" width="90" height="70" as="geometry"/>
                </mxCell>
                <mxCell id="3" value="" style="html=1;verticalLabelPosition=bottom;align=center;labelBackgroundColor=#ffffff;verticalAlign=top;strokeWidth=2;strokeColor=#0080F0;shadow=0;dashed=0;shape=mxgraph.ios7.icons.user;" vertex="1" parent="1">
                    <mxGeometry x="135" y="150" width="30" height="30" as="geometry"/>
                </mxCell>
                <mxCell id="4" value="client Browser" style="text;html=1;strokeColor=#006EAF;fillColor=#1ba1e2;align=center;verticalAlign=middle;whiteSpace=wrap;rounded=0;fontColor=#ffffff;" vertex="1" parent="1">
                    <mxGeometry x="120" y="80" width="60" height="30" as="geometry"/>
                </mxCell>
                <mxCell id="13" value="Session table" style="swimlane;fontStyle=0;childLayout=stackLayout;horizontal=1;startSize=30;horizontalStack=0;resizeParent=1;resizeParentMax=0;resizeLast=0;collapsible=1;marginBottom=0;whiteSpace=wrap;html=1;" vertex="1" parent="1">
                    <mxGeometry x="610" y="365" width="180" height="90" as="geometry"/>
                </mxCell>
                <mxCell id="39" value="" style="endArrow=classic;html=1;" edge="1" parent="1">
                    <mxGeometry width="50" height="50" relative="1" as="geometry">
                        <mxPoint x="210" y="161" as="sourcePoint"/>
                        <mxPoint x="420" y="160" as="targetPoint"/>
                    </mxGeometry>
                </mxCell>
                <mxCell id="47" value="" style="endArrow=none;dashed=1;html=1;entryX=0.427;entryY=1.011;entryDx=0;entryDy=0;entryPerimeter=0;" edge="1" parent="1" target="46">
                    <mxGeometry width="50" height="50" relative="1" as="geometry">
                        <mxPoint x="204" y="430" as="sourcePoint"/>
                        <mxPoint x="250" y="370" as="targetPoint"/>
                    </mxGeometry>
                </mxCell>
                <mxCell id="65" value="" style="swimlane;startSize=0;" vertex="1" parent="1">
                    <mxGeometry x="120" y="430" width="160" height="150" as="geometry"/>
                </mxCell>
                <mxCell id="59" value="set-cookie :&amp;nbsp;&amp;nbsp;&lt;span style=&quot;text-align: left;&quot;&gt;session_id = &quot;DsfjlllT10Taaa&quot;&lt;/span&gt;" style="text;html=1;strokeColor=none;fillColor=none;align=center;verticalAlign=middle;whiteSpace=wrap;rounded=0;" vertex="1" parent="65">
                    <mxGeometry y="100" width="160" height="30" as="geometry"/>
                </mxCell>
                <mxCell id="48" value="Reponse" style="text;html=1;strokeColor=#3700CC;fillColor=#6a00ff;align=center;verticalAlign=middle;whiteSpace=wrap;rounded=0;fontColor=#ffffff;" vertex="1" parent="65">
                    <mxGeometry x="50" y="10" width="60" height="30" as="geometry"/>
                </mxCell>
                <mxCell id="69" value="" style="endArrow=classic;html=1;" edge="1" parent="65">
                    <mxGeometry width="50" height="50" relative="1" as="geometry">
                        <mxPoint x="79.58000000000001" y="65" as="sourcePoint"/>
                        <mxPoint x="79.28999999999999" y="100" as="targetPoint"/>
                    </mxGeometry>
                </mxCell>
                <mxCell id="56" value="Headers" style="text;html=1;strokeColor=none;fillColor=none;align=center;verticalAlign=middle;whiteSpace=wrap;rounded=0;" vertex="1" parent="65">
                    <mxGeometry y="40" width="160" height="30" as="geometry"/>
                </mxCell>
                <mxCell id="75" value="Client Side" style="swimlane;whiteSpace=wrap;html=1;" vertex="1" parent="1">
                    <mxGeometry x="40" y="29.38" width="310" height="570.62" as="geometry"/>
                </mxCell>
                <mxCell id="45" value="" style="endArrow=classic;html=1;" edge="1" parent="75">
                    <mxGeometry width="50" height="50" relative="1" as="geometry">
                        <mxPoint x="390" y="339.62" as="sourcePoint"/>
                        <mxPoint x="170" y="170.62" as="targetPoint"/>
                    </mxGeometry>
                </mxCell>
                <mxCell id="46" value="5- send html file (Reponse)" style="text;html=1;strokeColor=none;fillColor=none;align=center;verticalAlign=middle;whiteSpace=wrap;rounded=0;" vertex="1" parent="75">
                    <mxGeometry x="95" y="240.62" width="160" height="30" as="geometry"/>
                </mxCell>
                <mxCell id="10" value="1- request&amp;nbsp;" style="text;html=1;strokeColor=none;fillColor=none;align=center;verticalAlign=middle;whiteSpace=wrap;rounded=0;" vertex="1" parent="75">
                    <mxGeometry x="230" y="90.62" width="60" height="30" as="geometry"/>
                </mxCell>
                <mxCell id="76" value="Server Side" style="swimlane;whiteSpace=wrap;html=1;" vertex="1" parent="1">
                    <mxGeometry x="380" y="30" width="440" height="570" as="geometry"/>
                </mxCell>
                <mxCell id="6" value="Server" style="text;html=1;strokeColor=#006EAF;fillColor=#1ba1e2;align=center;verticalAlign=middle;whiteSpace=wrap;rounded=0;fontColor=#ffffff;" vertex="1" parent="76">
                    <mxGeometry x="60.00000000000006" y="60" width="60" height="30" as="geometry"/>
                </mxCell>
                <mxCell id="11" value="" style="shape=datastore;whiteSpace=wrap;html=1;" vertex="1" parent="76">
                    <mxGeometry x="312.5" y="120.63" width="80" height="88.75" as="geometry"/>
                </mxCell>
                <mxCell id="12" value="Database" style="text;html=1;strokeColor=#006EAF;fillColor=#1ba1e2;align=center;verticalAlign=middle;whiteSpace=wrap;rounded=0;fontColor=#ffffff;" vertex="1" parent="76">
                    <mxGeometry x="322.5" y="60" width="60" height="30" as="geometry"/>
                </mxCell>
                <mxCell id="18" value="session_id = &quot;DsfjlllT10Taaa&quot;" style="text;strokeColor=none;fillColor=none;align=left;verticalAlign=middle;spacingLeft=4;spacingRight=4;overflow=hidden;points=[[0,0.5],[1,0.5]];portConstraint=eastwest;rotatable=0;whiteSpace=wrap;html=1;" vertex="1" parent="76">
                    <mxGeometry x="222.5" y="460" width="180" height="50" as="geometry"/>
                </mxCell>
                <mxCell id="22" value="3- Session Created" style="text;html=1;strokeColor=none;fillColor=none;align=center;verticalAlign=middle;whiteSpace=wrap;rounded=0;" vertex="1" parent="76">
                    <mxGeometry x="172.5" y="188.75" width="110" height="30" as="geometry"/>
                </mxCell>
                <mxCell id="23" value="2- Create Session&amp;nbsp;" style="text;html=1;strokeColor=none;fillColor=none;align=center;verticalAlign=middle;whiteSpace=wrap;rounded=0;" vertex="1" parent="76">
                    <mxGeometry x="172.5" y="100" width="110" height="30" as="geometry"/>
                </mxCell>
                <mxCell id="34" value="" style="endArrow=classic;html=1;exitX=0.25;exitY=1;exitDx=0;exitDy=0;" edge="1" parent="76" target="18">
                    <mxGeometry width="50" height="50" relative="1" as="geometry">
                        <mxPoint x="317.5" y="435" as="sourcePoint"/>
                        <mxPoint x="142.5" y="240" as="targetPoint"/>
                    </mxGeometry>
                </mxCell>
                <mxCell id="40" value="" style="endArrow=classic;html=1;" edge="1" parent="76">
                    <mxGeometry width="50" height="50" relative="1" as="geometry">
                        <mxPoint x="163.81999999999994" y="141.25" as="sourcePoint"/>
                        <mxPoint x="282.5" y="140" as="targetPoint"/>
                    </mxGeometry>
                </mxCell>
                <mxCell id="42" value="" style="endArrow=classic;html=1;" edge="1" parent="76">
                    <mxGeometry width="50" height="50" relative="1" as="geometry">
                        <mxPoint x="282.5" y="180" as="sourcePoint"/>
                        <mxPoint x="162.5" y="180" as="targetPoint"/>
                    </mxGeometry>
                </mxCell>
                <mxCell id="43" value="" style="endArrow=classic;html=1;" edge="1" parent="76">
                    <mxGeometry width="50" height="50" relative="1" as="geometry">
                        <mxPoint x="352.5" y="220" as="sourcePoint"/>
                        <mxPoint x="352.5" y="330" as="targetPoint"/>
                    </mxGeometry>
                </mxCell>
                <mxCell id="24" value="" style="whiteSpace=wrap;html=1;shape=mxgraph.basic.document" vertex="1" parent="76">
                    <mxGeometry x="60" y="310" width="100" height="100" as="geometry"/>
                </mxCell>
                <mxCell id="25" value="" style="html=1;shadow=0;dashed=0;shape=mxgraph.bootstrap.rrect;rSize=5;strokeColor=#CED4DA;html=1;whiteSpace=wrap;fillColor=#FFFFFF;fontColor=#7D868C;align=left;spacingLeft=0;spacing=15;fontSize=14;" vertex="1" parent="76">
                    <mxGeometry x="97.43" y="325" width="42.5" height="70" as="geometry"/>
                </mxCell>
                <mxCell id="26" value="html file" style="html=1;shadow=0;dashed=0;shape=mxgraph.bootstrap.rightButton;strokeColor=inherit;gradientColor=inherit;fontColor=inherit;fillColor=#E9ECEF;rSize=5;perimeter=none;whiteSpace=wrap;resizeHeight=1;fontSize=14;" vertex="1" parent="25">
                    <mxGeometry x="1" width="70" height="70" relative="1" as="geometry">
                        <mxPoint x="-70" as="offset"/>
                    </mxGeometry>
                </mxCell>
                <mxCell id="35" value="4- Generated html file" style="text;html=1;strokeColor=none;fillColor=none;align=center;verticalAlign=middle;whiteSpace=wrap;rounded=0;" vertex="1" parent="76">
                    <mxGeometry x="114.93" y="240" width="130" height="30" as="geometry"/>
                </mxCell>
                <mxCell id="44" value="" style="endArrow=classic;html=1;" edge="1" parent="76">
                    <mxGeometry width="50" height="50" relative="1" as="geometry">
                        <mxPoint x="97.43" y="200" as="sourcePoint"/>
                        <mxPoint x="97.43" y="300" as="targetPoint"/>
                    </mxGeometry>
                </mxCell>
                <mxCell id="5" value="" style="points=[];aspect=fixed;html=1;align=center;shadow=0;dashed=0;image;image=img/lib/allied_telesis/computer_and_terminals/Server_Desktop.svg;" vertex="1" parent="76">
                    <mxGeometry x="45" y="103" width="97.82" height="124" as="geometry"/>
                </mxCell>
            </root>
        </mxGraphModel>
    </diagram>
</mxfile>